<svg xmlns="http://www.w3.org/2000/svg" style="display:none;">

 <symbol id="icon-username" viewBox="0 0 30 30"  aria-hidden="true" role="img" >
            <path d="M15 5C16.3261 5 17.5979 5.52678 18.5355 6.46447C19.4732 7.40215 20 8.67392 20 10C20 11.3261 19.4732 12.5979 18.5355 13.5355C17.5979 14.4732 16.3261 15 15 15C13.6739 15 12.4021 14.4732 11.4645 13.5355C10.5268 12.5979 10 11.3261 10 10C10 8.67392 10.5268 7.40215 11.4645 6.46447C12.4021 5.52678 13.6739 5 15 5ZM15 17.5C20.525 17.5 25 19.7375 25 22.5V25H5V22.5C5 19.7375 9.475 17.5 15 17.5Z" fill="#212427"/>

  </symbol>

  <symbol  id="icon-email" viewBox="0 0 30 30"  aria-hidden="true" role="img" >
  <path d="M25 5H5C3.625 5 2.5125 6.125 2.5125 7.5L2.5 22.5C2.5 23.875 3.625 25 5 25H25C26.375 25 27.5 23.875 27.5 22.5V7.5C27.5 6.125 26.375 5 25 5ZM25 10L15 16.25L5 10V7.5L15 13.75L25 7.5V10Z" fill="black"/>   
  </symbol>

     <symbol  id="icon-confirmPass" viewBox="0 0 30 30"  aria-hidden="true" role="img" >
     <path d="M15 21.25C14.337 21.25 13.7011 20.9866 13.2322 20.5178C12.7634 20.0489 12.5 19.413 12.5 18.75C12.5 17.3625 13.6125 16.25 15 16.25C15.663 16.25 16.2989 16.5134 16.7678 16.9822C17.2366 17.4511 17.5 18.087 17.5 18.75C17.5 19.413 17.2366 20.0489 16.7678 20.5178C16.2989 20.9866 15.663 21.25 15 21.25ZM22.5 25V12.5H7.5V25H22.5ZM22.5 10C23.163 10 23.7989 10.2634 24.2678 10.7322C24.7366 11.2011 25 11.837 25 12.5V25C25 25.663 24.7366 26.2989 24.2678 26.7678C23.7989 27.2366 23.163 27.5 22.5 27.5H7.5C6.83696 27.5 6.20107 27.2366 5.73223 26.7678C5.26339 26.2989 5 25.663 5 25V12.5C5 11.1125 6.1125 10 7.5 10H8.75V7.5C8.75 5.8424 9.40848 4.25269 10.5806 3.08058C11.7527 1.90848 13.3424 1.25 15 1.25C15.8208 1.25 16.6335 1.41166 17.3918 1.72575C18.1501 2.03984 18.8391 2.50022 19.4194 3.08058C19.9998 3.66095 20.4602 4.34994 20.7742 5.10823C21.0883 5.86651 21.25 6.67924 21.25 7.5V10H22.5ZM15 3.75C14.0054 3.75 13.0516 4.14509 12.3483 4.84835C11.6451 5.55161 11.25 6.50544 11.25 7.5V10H18.75V7.5C18.75 6.50544 18.3549 5.55161 17.6517 4.84835C16.9484 4.14509 15.9946 3.75 15 3.75Z" fill="black"/>
  </symbol>

    <symbol  id="icon-password" viewBox="0 0 30 30"  aria-hidden="true" role="img" >
    <path d="M15 21.25C15.663 21.25 16.2989 20.9866 16.7678 20.5178C17.2366 20.0489 17.5 19.413 17.5 18.75C17.5 18.087 17.2366 17.4511 16.7678 16.9822C16.2989 16.5134 15.663 16.25 15 16.25C14.337 16.25 13.7011 16.5134 13.2322 16.9822C12.7634 17.4511 12.5 18.087 12.5 18.75C12.5 19.413 12.7634 20.0489 13.2322 20.5178C13.7011 20.9866 14.337 21.25 15 21.25ZM22.5 10C23.163 10 23.7989 10.2634 24.2678 10.7322C24.7366 11.2011 25 11.837 25 12.5V25C25 25.663 24.7366 26.2989 24.2678 26.7678C23.7989 27.2366 23.163 27.5 22.5 27.5H7.5C6.83696 27.5 6.20107 27.2366 5.73223 26.7678C5.26339 26.2989 5 25.663 5 25V12.5C5 11.837 5.26339 11.2011 5.73223 10.7322C6.20107 10.2634 6.83696 10 7.5 10H8.75V7.5C8.75 5.8424 9.40848 4.25269 10.5806 3.08058C11.7527 1.90848 13.3424 1.25 15 1.25C15.8208 1.25 16.6335 1.41166 17.3918 1.72575C18.1501 2.03984 18.8391 2.50022 19.4194 3.08058C19.9998 3.66095 20.4602 4.34994 20.7742 5.10823C21.0883 5.86651 21.25 6.67924 21.25 7.5V10H22.5ZM15 3.75C14.0054 3.75 13.0516 4.14509 12.3483 4.84835C11.6451 5.55161 11.25 6.50544 11.25 7.5V10H18.75V7.5C18.75 6.50544 18.3549 5.55161 17.6517 4.84835C16.9484 4.14509 15.9946 3.75 15 3.75Z" fill="#212427"/>
  </symbol>

    <symbol  id="icon-name" viewBox="0 0 30 30"  aria-hidden="true" role="img" >
    <path d="M14.0003 10.4999C16.2555 10.4999 18.0837 8.67175 18.0837 6.41659C18.0837 4.16142 16.2555 2.33325 14.0003 2.33325C11.7452 2.33325 9.91699 4.16142 9.91699 6.41659C9.91699 8.67175 11.7452 10.4999 14.0003 10.4999Z" stroke="black" stroke-width="4" stroke-linecap="round" stroke-linejoin="round"/>
<path d="M2.3335 23.9166C2.3335 18.7617 7.03458 14.5833 12.8335 14.5833M18.0835 24.4999L23.9168 18.6666L21.5835 16.3333L15.7502 22.1666V24.4999H18.0835Z" stroke="black" stroke-width="4" stroke-linecap="round" stroke-linejoin="round"/>
  </symbol>
  
    <symbol  id="icon-facebook" viewBox="0 0 30 30"  aria-hidden="true" role="img" >
    <path d="M26.2078 0H1.53047C0.685214 0 0 0.685214 0 1.53047V26.2078C0 27.0531 0.685214 27.7383 1.53047 27.7383H26.2078C27.0531 27.7383 27.7383 27.0531 27.7383 26.2078V1.53047C27.7383 0.685214 27.0531 0 26.2078 0Z" fill="#3D5A98"/>
<path d="M19.1366 27.7361V16.9947H22.7413L23.2804 12.8087H19.1366V10.1368C19.1366 8.92512 19.4741 8.09778 21.2108 8.09778H23.428V4.34778C22.3544 4.23589 21.2754 4.18268 20.196 4.18841C17.0038 4.18841 14.8054 6.13372 14.8054 9.722V12.8087H11.2007V16.9947H14.8054V27.7361H19.1366Z" fill="white"/>
  </symbol>
    <symbol  id="icon-google" viewBox="0 0 30 30"  aria-hidden="true" role="img" >
    <path d="M25.4952 10.0519H24.4883V10H13.2383V15H20.3027C19.272 17.9106 16.5027 20 13.2383 20C9.09641 20 5.73828 16.6419 5.73828 12.5C5.73828 8.35812 9.09641 5 13.2383 5C15.1502 5 16.8895 5.72125 18.2139 6.89937L21.7495 3.36375C19.517 1.28312 16.5308 0 13.2383 0C6.33516 0 0.738281 5.59688 0.738281 12.5C0.738281 19.4031 6.33516 25 13.2383 25C20.1414 25 25.7383 19.4031 25.7383 12.5C25.7383 11.6619 25.652 10.8438 25.4952 10.0519Z" fill="#FFC107"/>
<path d="M2.17969 6.68188L6.28656 9.69375C7.39781 6.9425 10.0891 5 13.2384 5C15.1503 5 16.8897 5.72125 18.2141 6.89937L21.7497 3.36375C19.5172 1.28312 16.5309 0 13.2384 0C8.43719 0 4.27344 2.71062 2.17969 6.68188Z" fill="#FF3D00"/>
<path d="M13.2382 24.9999C16.467 24.9999 19.4007 23.7643 21.6189 21.7549L17.7501 18.4812C16.4529 19.4677 14.8679 20.0012 13.2382 19.9999C9.98698 19.9999 7.22636 17.9268 6.18636 15.0337L2.11011 18.1743C4.17886 22.2224 8.38011 24.9999 13.2382 24.9999Z" fill="#4CAF50"/>
<path d="M25.4952 10.0519H24.4883V10H13.2383V15H20.3027C19.8097 16.3853 18.9216 17.5957 17.7483 18.4819L17.7502 18.4806L21.6189 21.7544C21.3452 22.0031 25.7383 18.75 25.7383 12.5C25.7383 11.6619 25.652 10.8438 25.4952 10.0519Z" fill="#1976D2"/>
  </symbol>
    <symbol  id="icon-vector" viewBox="0 0 30 30"  aria-hidden="true" role="img" >
    <path d="M4.73828 0C2.53203 0 0.738281 1.72969 0.738281 3.85714V23.1429C0.738281 25.2703 2.53203 27 4.73828 27H24.7383C26.9445 27 28.7383 25.2703 28.7383 23.1429V3.85714C28.7383 1.72969 26.9445 0 24.7383 0H4.73828ZM23.307 5.0625L16.8195 12.2103L24.4508 21.9375H18.4758L13.8008 16.0373L8.44453 21.9375H5.47578L12.4133 14.2895L5.09453 5.0625H11.2195L15.4508 10.4565L20.3383 5.0625H23.307ZM20.9445 20.2259L10.3258 6.68371H8.55703L19.2945 20.2259H20.9383H20.9445Z" fill="black"/>
  </symbol>


</svg>