<svg xmlns="http://www.w3.org/2000/svg" style="display:none;">

 <symbol id="icon-username" viewBox="0 0 30 30"  aria-hidden="true" role="img" >
            <path d="M15 5C16.3261 5 17.5979 5.52678 18.5355 6.46447C19.4732 7.40215 20 8.67392 20 10C20 11.3261 19.4732 12.5979 18.5355 13.5355C17.5979 14.4732 16.3261 15 15 15C13.6739 15 12.4021 14.4732 11.4645 13.5355C10.5268 12.5979 10 11.3261 10 10C10 8.67392 10.5268 7.40215 11.4645 6.46447C12.4021 5.52678 13.6739 5 15 5ZM15 17.5C20.525 17.5 25 19.7375 25 22.5V25H5V22.5C5 19.7375 9.475 17.5 15 17.5Z" fill="#212427"/>

  </symbol>

  <symbol  id="icon-email" viewBox="0 0 30 30"  aria-hidden="true" role="img" >
  <path d="M25 5H5C3.625 5 2.5125 6.125 2.5125 7.5L2.5 22.5C2.5 23.875 3.625 25 5 25H25C26.375 25 27.5 23.875 27.5 22.5V7.5C27.5 6.125 26.375 5 25 5ZM25 10L15 16.25L5 10V7.5L15 13.75L25 7.5V10Z" fill="black"/>   
  </symbol>

     <symbol  id="icon-confirmPass" viewBox="0 0 30 30"  aria-hidden="true" role="img" >
     <path d="M15 21.25C14.337 21.25 13.7011 20.9866 13.2322 20.5178C12.7634 20.0489 12.5 19.413 12.5 18.75C12.5 17.3625 13.6125 16.25 15 16.25C15.663 16.25 16.2989 16.5134 16.7678 16.9822C17.2366 17.4511 17.5 18.087 17.5 18.75C17.5 19.413 17.2366 20.0489 16.7678 20.5178C16.2989 20.9866 15.663 21.25 15 21.25ZM22.5 25V12.5H7.5V25H22.5ZM22.5 10C23.163 10 23.7989 10.2634 24.2678 10.7322C24.7366 11.2011 25 11.837 25 12.5V25C25 25.663 24.7366 26.2989 24.2678 26.7678C23.7989 27.2366 23.163 27.5 22.5 27.5H7.5C6.83696 27.5 6.20107 27.2366 5.73223 26.7678C5.26339 26.2989 5 25.663 5 25V12.5C5 11.1125 6.1125 10 7.5 10H8.75V7.5C8.75 5.8424 9.40848 4.25269 10.5806 3.08058C11.7527 1.90848 13.3424 1.25 15 1.25C15.8208 1.25 16.6335 1.41166 17.3918 1.72575C18.1501 2.03984 18.8391 2.50022 19.4194 3.08058C19.9998 3.66095 20.4602 4.34994 20.7742 5.10823C21.0883 5.86651 21.25 6.67924 21.25 7.5V10H22.5ZM15 3.75C14.0054 3.75 13.0516 4.14509 12.3483 4.84835C11.6451 5.55161 11.25 6.50544 11.25 7.5V10H18.75V7.5C18.75 6.50544 18.3549 5.55161 17.6517 4.84835C16.9484 4.14509 15.9946 3.75 15 3.75Z" fill="black"/>
  </symbol>

    <symbol  id="icon-password" viewBox="0 0 30 30"  aria-hidden="true" role="img" >
    <path d="M15 21.25C15.663 21.25 16.2989 20.9866 16.7678 20.5178C17.2366 20.0489 17.5 19.413 17.5 18.75C17.5 18.087 17.2366 17.4511 16.7678 16.9822C16.2989 16.5134 15.663 16.25 15 16.25C14.337 16.25 13.7011 16.5134 13.2322 16.9822C12.7634 17.4511 12.5 18.087 12.5 18.75C12.5 19.413 12.7634 20.0489 13.2322 20.5178C13.7011 20.9866 14.337 21.25 15 21.25ZM22.5 10C23.163 10 23.7989 10.2634 24.2678 10.7322C24.7366 11.2011 25 11.837 25 12.5V25C25 25.663 24.7366 26.2989 24.2678 26.7678C23.7989 27.2366 23.163 27.5 22.5 27.5H7.5C6.83696 27.5 6.20107 27.2366 5.73223 26.7678C5.26339 26.2989 5 25.663 5 25V12.5C5 11.837 5.26339 11.2011 5.73223 10.7322C6.20107 10.2634 6.83696 10 7.5 10H8.75V7.5C8.75 5.8424 9.40848 4.25269 10.5806 3.08058C11.7527 1.90848 13.3424 1.25 15 1.25C15.8208 1.25 16.6335 1.41166 17.3918 1.72575C18.1501 2.03984 18.8391 2.50022 19.4194 3.08058C19.9998 3.66095 20.4602 4.34994 20.7742 5.10823C21.0883 5.86651 21.25 6.67924 21.25 7.5V10H22.5ZM15 3.75C14.0054 3.75 13.0516 4.14509 12.3483 4.84835C11.6451 5.55161 11.25 6.50544 11.25 7.5V10H18.75V7.5C18.75 6.50544 18.3549 5.55161 17.6517 4.84835C16.9484 4.14509 15.9946 3.75 15 3.75Z" fill="#212427"/>
  </symbol>

    <symbol  id="icon-name" viewBox="0 0 30 30"  aria-hidden="true" role="img" >
    <path d="M14.0003 10.4999C16.2555 10.4999 18.0837 8.67175 18.0837 6.41659C18.0837 4.16142 16.2555 2.33325 14.0003 2.33325C11.7452 2.33325 9.91699 4.16142 9.91699 6.41659C9.91699 8.67175 11.7452 10.4999 14.0003 10.4999Z" stroke="black" stroke-width="4" stroke-linecap="round" stroke-linejoin="round"/>
<path d="M2.3335 23.9166C2.3335 18.7617 7.03458 14.5833 12.8335 14.5833M18.0835 24.4999L23.9168 18.6666L21.5835 16.3333L15.7502 22.1666V24.4999H18.0835Z" stroke="black" stroke-width="4" stroke-linecap="round" stroke-linejoin="round"/>
  </symbol>
  
    <symbol  id="icon-facebook" viewBox="0 0 30 30"  aria-hidden="true" role="img" >
    <path d="M26.2078 0H1.53047C0.685214 0 0 0.685214 0 1.53047V26.2078C0 27.0531 0.685214 27.7383 1.53047 27.7383H26.2078C27.0531 27.7383 27.7383 27.0531 27.7383 26.2078V1.53047C27.7383 0.685214 27.0531 0 26.2078 0Z" fill="#3D5A98"/>
<path d="M19.1366 27.7361V16.9947H22.7413L23.2804 12.8087H19.1366V10.1368C19.1366 8.92512 19.4741 8.09778 21.2108 8.09778H23.428V4.34778C22.3544 4.23589 21.2754 4.18268 20.196 4.18841C17.0038 4.18841 14.8054 6.13372 14.8054 9.722V12.8087H11.2007V16.9947H14.8054V27.7361H19.1366Z" fill="white"/>
  </symbol>
    <symbol  id="icon-google" viewBox="0 0 30 30"  aria-hidden="true" role="img" >
    <path d="M25.4952 10.0519H24.4883V10H13.2383V15H20.3027C19.272 17.9106 16.5027 20 13.2383 20C9.09641 20 5.73828 16.6419 5.73828 12.5C5.73828 8.35812 9.09641 5 13.2383 5C15.1502 5 16.8895 5.72125 18.2139 6.89937L21.7495 3.36375C19.517 1.28312 16.5308 0 13.2383 0C6.33516 0 0.738281 5.59688 0.738281 12.5C0.738281 19.4031 6.33516 25 13.2383 25C20.1414 25 25.7383 19.4031 25.7383 12.5C25.7383 11.6619 25.652 10.8438 25.4952 10.0519Z" fill="#FFC107"/>
<path d="M2.17969 6.68188L6.28656 9.69375C7.39781 6.9425 10.0891 5 13.2384 5C15.1503 5 16.8897 5.72125 18.2141 6.89937L21.7497 3.36375C19.5172 1.28312 16.5309 0 13.2384 0C8.43719 0 4.27344 2.71062 2.17969 6.68188Z" fill="#FF3D00"/>
<path d="M13.2382 24.9999C16.467 24.9999 19.4007 23.7643 21.6189 21.7549L17.7501 18.4812C16.4529 19.4677 14.8679 20.0012 13.2382 19.9999C9.98698 19.9999 7.22636 17.9268 6.18636 15.0337L2.11011 18.1743C4.17886 22.2224 8.38011 24.9999 13.2382 24.9999Z" fill="#4CAF50"/>
<path d="M25.4952 10.0519H24.4883V10H13.2383V15H20.3027C19.8097 16.3853 18.9216 17.5957 17.7483 18.4819L17.7502 18.4806L21.6189 21.7544C21.3452 22.0031 25.7383 18.75 25.7383 12.5C25.7383 11.6619 25.652 10.8438 25.4952 10.0519Z" fill="#1976D2"/>
  </symbol>
    <symbol  id="icon-vector" viewBox="0 0 30 30"  aria-hidden="true" role="img" >
    <path d="M4.73828 0C2.53203 0 0.738281 1.72969 0.738281 3.85714V23.1429C0.738281 25.2703 2.53203 27 4.73828 27H24.7383C26.9445 27 28.7383 25.2703 28.7383 23.1429V3.85714C28.7383 1.72969 26.9445 0 24.7383 0H4.73828ZM23.307 5.0625L16.8195 12.2103L24.4508 21.9375H18.4758L13.8008 16.0373L8.44453 21.9375H5.47578L12.4133 14.2895L5.09453 5.0625H11.2195L15.4508 10.4565L20.3383 5.0625H23.307ZM20.9445 20.2259L10.3258 6.68371H8.55703L19.2945 20.2259H20.9383H20.9445Z" fill="black"/>
  </symbol>

   <symbol  id="icon-search" viewBox="0 0 17 16" aria-hidden="true" role="img" >
<path fill-rule="evenodd" clip-rule="evenodd" d="M6.65349 0.712191C5.57196 0.790068 4.52474 1.12545 3.59919 1.69037C2.67365 2.25528 1.89661 3.03334 1.33292 3.95963C0.769235 4.88593 0.435234 5.93359 0.358787 7.01522C0.282339 8.09685 0.465663 9.18107 0.893464 10.1774C1.32126 11.1738 1.98114 12.0534 2.81802 12.7429C3.65491 13.4324 4.64455 13.9117 5.70437 14.141C6.76419 14.3702 7.86346 14.3426 8.91047 14.0606C9.95748 13.7786 10.9219 13.2503 11.7232 12.5197L14.8468 15.2242C15.0078 15.3588 15.2151 15.4247 15.4242 15.4078C15.6333 15.391 15.8274 15.2926 15.9647 15.1341C16.102 14.9755 16.1715 14.7693 16.1583 14.56C16.1451 14.3506 16.0501 14.1548 15.894 14.0148L12.7703 11.3103C13.4867 10.2535 13.8912 9.01631 13.9373 7.74037C13.9834 6.46443 13.6694 5.20128 13.0312 4.09547C12.393 2.98967 11.4563 2.08588 10.3284 1.48755C9.20052 0.88922 7.92696 0.620516 6.65349 0.712191ZM1.95468 7.8677C1.85575 6.49212 2.30732 5.13359 3.21004 4.09096C4.11276 3.04833 5.39269 2.407 6.76826 2.30807C8.14384 2.20914 9.50237 2.6607 10.545 3.56342C11.5876 4.46614 12.229 5.74608 12.3279 7.12165C12.4268 8.49722 11.9753 9.85575 11.0725 10.8984C10.1698 11.941 8.88988 12.5823 7.51431 12.6813C6.13874 12.7802 4.78021 12.3286 3.73757 11.4259C2.69494 10.5232 2.05362 9.24327 1.95468 7.8677Z" fill="white"/>
  </symbol>

     <symbol  id="icon-notifications" viewBox="0 0 15 16" aria-hidden="true" role="img" >
<path d="M10.3704 15.4889C10.3704 15.6068 10.3246 15.7199 10.2432 15.8032C10.1618 15.8866 10.0514 15.9334 9.93627 15.9334H5.30585C5.19072 15.9334 5.0803 15.8866 4.99889 15.8032C4.91748 15.7199 4.87175 15.6068 4.87175 15.4889C4.87175 15.3711 4.91748 15.258 4.99889 15.1747C5.0803 15.0913 5.19072 15.0445 5.30585 15.0445H9.93627C10.0514 15.0445 10.1618 15.0913 10.2432 15.1747C10.3246 15.258 10.3704 15.3711 10.3704 15.4889ZM14.2852 13.0445C14.1975 13.2027 14.0701 13.3342 13.9162 13.4253C13.7624 13.5165 13.5876 13.564 13.4098 13.563H1.83304C1.65499 13.5626 1.48019 13.5142 1.32625 13.4226C1.1723 13.331 1.04466 13.1995 0.956185 13.0413C0.867707 12.8831 0.821519 12.7039 0.822275 12.5216C0.823031 12.3393 0.870704 12.1604 0.960491 12.003C1.36927 11.2815 1.97774 9.24745 1.97774 6.60004C1.97774 5.06768 2.5723 3.59808 3.63063 2.51454C4.68896 1.43099 6.12436 0.822266 7.62106 0.822266C9.11776 0.822266 10.5532 1.43099 11.6115 2.51454C12.6698 3.59808 13.2644 5.06768 13.2644 6.60004C13.2644 9.24671 13.8736 11.2815 14.2831 12.003C14.3738 12.1607 14.4219 12.3404 14.4223 12.5234C14.4226 12.7065 14.3753 12.8864 14.2852 13.0445ZM13.5321 12.4519C12.9844 11.4889 12.3962 9.24301 12.3962 6.60004C12.3962 5.30343 11.8931 4.05992 10.9976 3.14308C10.1021 2.22623 8.8875 1.71115 7.62106 1.71115C6.35462 1.71115 5.14005 2.22623 4.24454 3.14308C3.34903 4.05992 2.84594 5.30343 2.84594 6.60004C2.84594 9.24375 2.25701 11.4889 1.70932 12.4519C1.69662 12.4744 1.68993 12.5 1.68993 12.526C1.68993 12.552 1.69662 12.5775 1.70932 12.6C1.72123 12.6227 1.739 12.6416 1.76069 12.6547C1.78238 12.6678 1.80715 12.6745 1.83231 12.6741H13.4091C13.4342 12.6745 13.459 12.6678 13.4807 12.6547C13.5024 12.6416 13.5202 12.6227 13.5321 12.6C13.5448 12.5775 13.5515 12.552 13.5515 12.526C13.5515 12.5 13.5448 12.4744 13.5321 12.4519Z" fill="white"/>
  </symbol>


     <symbol  id="icon-calender" viewBox="0 0 15 15" aria-hidden="true" role="img" >
<path d="M13.3276 2.09458L9.92466 2.09459V1.24737C9.92466 1.0125 9.73447 0.822266 9.49966 0.822266C9.26485 0.822266 9.07466 1.0125 9.07466 1.24737V2.09438H5.67466V1.24737C5.67466 1.0125 5.48447 0.822266 5.24966 0.822266C5.01485 0.822266 4.82466 1.0125 4.82466 1.24737V2.09438H1.42764C0.958224 2.09438 0.577637 2.47505 0.577637 2.94458V13.5721C0.577637 14.0416 0.958224 14.4223 1.42764 14.4223H13.3276C13.797 14.4223 14.1776 14.0416 14.1776 13.5721V2.94458C14.1776 2.47525 13.797 2.09458 13.3276 2.09458ZM13.3276 13.5721H1.42764V2.94458H4.82466V3.37286C4.82466 3.60772 5.01485 3.79796 5.24966 3.79796C5.48447 3.79796 5.67466 3.60772 5.67466 3.37286V2.94479H9.07466V3.37308C9.07466 3.60794 9.26485 3.79818 9.49966 3.79818C9.73447 3.79818 9.92466 3.60794 9.92466 3.37308V2.94479H13.3276V13.5721ZM10.3526 7.62087H11.2026C11.4372 7.62087 11.6276 7.43043 11.6276 7.19577V6.34557C11.6276 6.11092 11.4372 5.92047 11.2026 5.92047H10.3526C10.118 5.92047 9.92764 6.11092 9.92764 6.34557V7.19577C9.92764 7.43043 10.118 7.62087 10.3526 7.62087ZM10.3526 11.0215H11.2026C11.4372 11.0215 11.6276 10.8312 11.6276 10.5964V9.74616C11.6276 9.5115 11.4372 9.32106 11.2026 9.32106H10.3526C10.118 9.32106 9.92764 9.5115 9.92764 9.74616V10.5964C9.92764 10.8314 10.118 11.0215 10.3526 11.0215ZM7.80264 9.32106H6.95264C6.71804 9.32106 6.52764 9.5115 6.52764 9.74616V10.5964C6.52764 10.8312 6.71804 11.0215 6.95264 11.0215H7.80264C8.03724 11.0215 8.22764 10.8312 8.22764 10.5964V9.74616C8.22764 9.51171 8.03724 9.32106 7.80264 9.32106ZM7.80264 5.92047H6.95264C6.71804 5.92047 6.52764 6.11092 6.52764 6.34557V7.19577C6.52764 7.43043 6.71804 7.62087 6.95264 7.62087H7.80264C8.03724 7.62087 8.22764 7.43043 8.22764 7.19577V6.34557C8.22764 6.1107 8.03724 5.92047 7.80264 5.92047ZM4.40264 5.92047H3.55264C3.31804 5.92047 3.12764 6.11092 3.12764 6.34557V7.19577C3.12764 7.43043 3.31804 7.62087 3.55264 7.62087H4.40264C4.63724 7.62087 4.82764 7.43043 4.82764 7.19577V6.34557C4.82764 6.1107 4.63724 5.92047 4.40264 5.92047ZM4.40264 9.32106H3.55264C3.31804 9.32106 3.12764 9.5115 3.12764 9.74616V10.5964C3.12764 10.8312 3.31804 11.0215 3.55264 11.0215H4.40264C4.63724 11.0215 4.82764 10.8312 4.82764 10.5964V9.74616C4.82764 9.51171 4.63724 9.32106 4.40264 9.32106Z" fill="#F8F8FB"/>
  </symbol>

 <symbol id="icon-handwave" viewBox="0 0 43 41"  aria-hidden="true" role="img" >
        <path d="M9.97058 32.1806C9.61701 32.1099 9.33416 32.0392 8.98059 31.8978C8.62703 31.7564 8.34417 31.6856 8.06132 31.5442C7.4249 31.2614 6.85919 30.9078 6.29349 30.4835C5.16207 29.7057 4.2428 28.645 3.53567 27.3721C2.82853 26.17 2.40425 24.7557 2.33354 23.4122C2.26283 22.7051 2.33354 22.0686 2.40425 21.3615C2.47497 21.0079 2.54568 20.7251 2.61639 20.3715C2.68711 20.0179 2.82853 19.7351 2.89925 19.3815L2.96996 20.3715C2.96996 20.7251 3.04067 21.0079 3.11139 21.3615C3.1821 21.9979 3.32353 22.6343 3.46495 23.2C3.74781 24.4022 4.17209 25.5336 4.80851 26.5943C5.44493 27.655 6.15206 28.645 7.07133 29.5642C7.49561 29.9885 7.99061 30.4128 8.4856 30.8371C8.69774 31.0492 8.98059 31.2614 9.26345 31.4735L9.97058 32.1806ZM9.75844 34.7263C9.5463 34.8677 9.26345 34.9385 8.98059 35.0092C8.69774 35.0799 8.4856 35.1506 8.20275 35.1506C7.70775 35.2213 7.14205 35.292 6.57634 35.2213C5.51564 35.1506 4.38423 34.8677 3.46495 34.3728C2.47497 33.8778 1.62641 33.0999 1.0607 32.1806C0.777847 31.7564 0.494993 31.2614 0.282853 30.7664C0.21214 30.5542 0.141427 30.2714 0.0707133 29.9885C0.0707133 29.7764 0 29.5642 0 29.2814C0.21214 29.4935 0.353567 29.7057 0.494993 29.8471C0.707133 30.0592 0.84856 30.2714 0.989987 30.4128C1.34355 30.7664 1.62641 31.1199 1.97997 31.4028C2.68711 32.0392 3.39424 32.6049 4.2428 33.0292C5.02065 33.4535 5.93992 33.807 6.78848 34.0899C7.21276 34.2313 7.70775 34.302 8.20275 34.4435C8.41489 34.5142 8.69774 34.5142 8.90988 34.5849C9.26345 34.6556 9.47559 34.6556 9.75844 34.7263ZM25.7397 0.359636C26.0932 0.430349 26.3761 0.571776 26.7296 0.713202C27.0832 0.854629 27.3661 0.996056 27.6489 1.13748C28.2853 1.49105 28.851 1.84462 29.4167 2.2689C30.5482 3.11746 31.4674 4.24887 32.1039 5.52171C32.7403 6.79455 33.0938 8.20882 33.0938 9.55237C33.0938 10.2595 33.0231 10.8959 32.8817 11.6031C32.811 11.9566 32.7403 12.2395 32.5988 12.593C32.4574 12.9466 32.3867 13.2295 32.2453 13.5123L32.1746 12.5223C32.1746 12.1688 32.1746 11.8859 32.1039 11.5323L31.8917 9.62308C31.6796 8.42096 31.2553 7.21883 30.6896 6.08742C30.1239 4.956 29.4167 3.96602 28.5682 3.04674C28.1439 2.55175 27.6489 2.12747 27.2246 1.63248C27.0125 1.42034 26.7296 1.2082 26.4468 0.996056L25.7397 0.359636ZM31.8917 0.0767822C32.1746 0.147496 32.3867 0.218209 32.5988 0.359636C32.811 0.430349 33.0938 0.571776 33.306 0.713202C33.7303 0.996056 34.1545 1.27891 34.5788 1.63248C35.3567 2.33961 35.9931 3.18817 36.3467 4.17816C36.7709 5.16814 36.9124 6.22884 36.7709 7.28954C36.7002 7.78454 36.5588 8.27953 36.4174 8.77452C36.3467 8.98666 36.2052 9.26952 36.1345 9.48166C35.9931 9.6938 35.9224 9.90594 35.7102 10.1181V9.41094V8.70381C35.7102 8.20882 35.6395 7.78454 35.6395 7.36026C35.4981 6.44098 35.3567 5.59242 35.0031 4.81458C34.6495 3.96602 34.2253 3.25888 33.7303 2.48104C33.4474 2.12747 33.1646 1.70319 32.8817 1.34962C32.7403 1.13748 32.5988 0.996056 32.3867 0.783916C32.2453 0.430349 32.0331 0.218209 31.8917 0.0767822Z" fill="#42ADE2"/>
<path d="M5.65709 10.6131C4.24282 11.2495 3.74783 12.9466 4.38425 14.3609L13.2941 32.9585L18.2441 30.6249L9.33418 11.9566C8.69776 10.5423 7.07135 9.90592 5.65709 10.6131ZM29.0632 25.3921L34.296 22.9172L24.1133 1.70317C23.4061 0.288908 21.709 -0.347512 20.224 0.359621C18.8098 1.06675 18.1733 2.76387 18.8805 4.24885L29.0632 25.3921Z" fill="#FFDD67"/>
<path d="M20.2949 0.28888C20.1535 0.359594 20.012 0.430307 19.8706 0.571733C21.2142 0.218167 22.6284 0.854587 23.2648 2.12743L33.4476 23.3414L34.3668 22.9172L24.1841 1.70315C23.477 0.218167 21.7799 -0.418253 20.2949 0.28888Z" fill="#EBA352"/>
<path d="M18.2438 30.5542L23.6887 27.9378L13.2939 6.2995C12.5867 4.81452 10.7482 4.10739 9.26321 4.81452C7.77823 5.52165 7.14181 7.3602 7.84894 8.84518L18.2438 30.5542Z" fill="#FFDD67"/>
<path d="M9.26364 4.88529C9.12221 4.956 8.98078 5.02672 8.83936 5.16814C10.1829 4.81458 11.7386 5.451 12.375 6.79455L18.8099 20.3008L20.3656 21.2201L13.2943 6.37027C12.5872 4.81458 10.8193 4.17816 9.26364 4.88529Z" fill="#EBA352"/>
<path d="M22.8405 26.2407L28.2854 23.6243L17.8905 1.98599C17.1834 0.501011 15.3449 -0.206123 13.8599 0.571724C12.3749 1.27886 11.7385 3.1174 12.4456 4.60238L22.8405 26.2407Z" fill="#FFDD67"/>
<path d="M13.8599 0.501013C13.7185 0.571727 13.5771 0.713153 13.4357 0.783866C14.7792 0.4303 16.3349 1.06672 16.9713 2.41027L24.2548 17.6844L25.8105 18.6036L17.8906 1.98599C17.1835 0.4303 15.3449 -0.20612 13.8599 0.501013ZM5.65719 10.613C5.51576 10.6837 5.37434 10.7544 5.23291 10.8959C6.50575 10.5423 7.8493 11.1787 8.41501 12.4516L13.7185 23.5536L15.2742 24.4728L9.33428 12.0273C8.69786 10.5423 7.07146 9.90589 5.65719 10.613Z" fill="#EBA352"/>
<path d="M41.5794 8.49169C39.6701 7.00671 36.5587 8.63312 35.003 13.7245C33.9423 17.2601 33.8009 18.3208 31.5381 19.3815L30.2652 16.7652C30.2652 16.7652 10.1827 26.4529 10.9605 28.0086C10.9605 28.0086 13.3648 35.5042 17.4661 38.9691C23.5475 44.2019 37.7609 38.6156 38.3973 25.1093C38.7508 17.2601 43.6301 10.1181 41.5794 8.49169Z" fill="#FFDD67"/>
<path d="M41.5795 8.49158C41.2259 8.20872 40.8016 8.0673 40.3773 7.99658C40.4481 8.0673 40.5895 8.0673 40.6602 8.13801C42.7816 9.76442 40.5895 13.5122 39.3874 16.9065C38.3974 19.5936 37.5488 22.3514 37.6902 25.0385C38.2559 36.7769 26.4468 42.3633 19.3755 40.2419C26.3054 43.1411 39.1752 37.6255 38.6095 25.3921C38.4681 22.705 39.2459 20.0886 40.3066 17.26C41.438 13.8658 43.6302 10.118 41.5795 8.49158Z" fill="#EBA352"/>
<path d="M32.1748 19.0985C27.7905 19.5935 21.3556 25.887 25.8813 32.7462C22.5578 25.8163 28.0027 21.1492 31.4676 19.5228C31.8212 19.2399 32.1748 19.0985 32.1748 19.0985Z" fill="#EBA352"/>
  </symbol>


 <symbol id="icon-dashboard" viewBox="0 0 24 24"  aria-hidden="true" role="img" >
<path d="M13.3333 8V0H24V8H13.3333ZM0 13.3333V0H10.6667V13.3333H0ZM13.3333 24V10.6667H24V24H13.3333ZM0 24V16H10.6667V24H0Z" fill="inherit"/>

  </symbol>

 <symbol id="icon-settings" viewBox="0 0 24 24"  aria-hidden="true" role="img" >
<path d="M8.71642 24L8.23881 20.16C7.9801 20.06 7.73612 19.94 7.50687 19.8C7.27761 19.66 7.05393 19.51 6.83582 19.35L3.28358 20.85L0 15.15L3.07463 12.81C3.05473 12.67 3.04478 12.5348 3.04478 12.4044V11.5956C3.04478 11.4652 3.05473 11.33 3.07463 11.19L0 8.85L3.28358 3.15L6.83582 4.65C7.05473 4.49 7.28358 4.34 7.52239 4.2C7.76119 4.06 8 3.94 8.23881 3.84L8.71642 0H15.2836L15.7612 3.84C16.0199 3.94 16.2639 4.06 16.4931 4.2C16.7224 4.34 16.9461 4.49 17.1642 4.65L20.7164 3.15L24 8.85L20.9254 11.19C20.9453 11.33 20.9552 11.4652 20.9552 11.5956V12.4044C20.9552 12.5348 20.9353 12.67 20.8955 12.81L23.9701 15.15L20.6866 20.85L17.1642 19.35C16.9453 19.51 16.7164 19.66 16.4776 19.8C16.2388 19.94 16 20.06 15.7612 20.16L15.2836 24H8.71642ZM12.0597 16.2C13.2139 16.2 14.199 15.79 15.0149 14.97C15.8308 14.15 16.2388 13.16 16.2388 12C16.2388 10.84 15.8308 9.85 15.0149 9.03C14.199 8.21 13.2139 7.8 12.0597 7.8C10.8856 7.8 9.89532 8.21 9.08896 9.03C8.28259 9.85 7.8798 10.84 7.8806 12C7.8806 13.16 8.28338 14.15 9.08896 14.97C9.89453 15.79 10.8848 16.2 12.0597 16.2Z" fill="inherit"/>

  </symbol>

 <symbol id="icon-myTask" viewBox="0 0 24 24"  aria-hidden="true" role="img" >
<path d="M5 22H19C20.103 22 21 21.103 21 20V5C21 3.897 20.103 3 19 3H17C17 2.73478 16.8946 2.48043 16.7071 2.29289C16.5196 2.10536 16.2652 2 16 2H8C7.73478 2 7.48043 2.10536 7.29289 2.29289C7.10536 2.48043 7 2.73478 7 3H5C3.897 3 3 3.897 3 5V20C3 21.103 3.897 22 5 22ZM5 5H7V7H17V5H19V20H5V5Z" fill="inherit"/>
<path d="M11 13.586L9.20697 11.793L7.79297 13.207L11 16.414L16.207 11.207L14.793 9.79297L11 13.586Z" fill="inherit"/>

  </symbol>

 <symbol id="icon-logout" viewBox="0 0 24 24"  aria-hidden="true" role="img" >
<path d="M18.6667 6.66667L16.8 8.53333L18.9333 10.6667H8V13.3333H18.9333L16.8 15.4667L18.6667 17.3333L24 12L18.6667 6.66667ZM2.66667 2.66667H12V0H2.66667C1.2 0 0 1.2 0 2.66667V21.3333C0 22.8 1.2 24 2.66667 24H12V21.3333H2.66667V2.66667Z" fill="inherit"/>

  </symbol>


 <symbol id="icon-pending" viewBox="0 0 29 33"  aria-hidden="true" role="img" >
<path d="M23.8511 26.2698L22.4285 25.4499V22.6013C22.4285 22.5211 22.3965 22.4442 22.3397 22.3875C22.2829 22.3308 22.2059 22.299 22.1255 22.299C22.0452 22.299 21.9681 22.3308 21.9113 22.3875C21.8545 22.4442 21.8226 22.5211 21.8226 22.6013V25.6246C21.8226 25.6777 21.8366 25.7298 21.8631 25.7758C21.8897 25.8218 21.928 25.8599 21.974 25.8865L23.5482 26.7935C23.5825 26.8135 23.6205 26.8266 23.66 26.8319C23.6994 26.8372 23.7395 26.8346 23.778 26.8243C23.8164 26.814 23.8524 26.7962 23.8839 26.7719C23.9154 26.7476 23.9418 26.7173 23.9614 26.6828C24.0016 26.6134 24.0126 26.531 23.9919 26.4535C23.9713 26.3761 23.9206 26.31 23.8511 26.2698ZM22.1255 19.578C18.7791 19.578 16.0664 22.2851 16.0664 25.6246C16.0664 28.9642 18.7791 31.6713 22.1255 31.6713C25.4701 31.6676 28.181 28.9624 28.1846 25.6246C28.1846 22.2851 25.4719 19.578 22.1255 19.578ZM22.1255 31.0666C21.4094 31.0666 20.7003 30.9259 20.0387 30.6524C19.3771 30.3789 18.7759 29.978 18.2695 29.4727C17.7631 28.9674 17.3615 28.3674 17.0874 27.7072C16.8134 27.0469 16.6723 26.3393 16.6723 25.6246C16.6723 24.91 16.8134 24.2023 17.0874 23.5421C17.3615 22.8818 17.7631 22.2819 18.2695 21.7766C18.7759 21.2712 19.3771 20.8704 20.0387 20.5969C20.7003 20.3234 21.4094 20.1827 22.1255 20.1827C23.5713 20.1843 24.9574 20.7581 25.9797 21.7784C27.0021 22.7986 27.5771 24.1818 27.5787 25.6246C27.5787 27.0679 27.0042 28.4521 25.9815 29.4727C24.9588 30.4933 23.5718 31.0666 22.1255 31.0666Z" fill="#888888" stroke="#A1A3AB"/>
<path d="M15.8909 2.39129H13.5073V1.59419C13.506 1.17178 13.3382 0.767019 13.0404 0.468322C12.7427 0.169626 12.3392 0.00126159 11.9182 0H5.56182C5.14075 0.00126159 4.73729 0.169626 4.43955 0.468322C4.14181 0.767019 3.97398 1.17178 3.97273 1.59419V2.39129H1.58909C1.16802 2.39255 0.764563 2.56092 0.466823 2.85961C0.169083 3.15831 0.00125755 3.56307 0 3.98549V20.7245C0.00125755 21.1469 0.169083 21.5517 0.466823 21.8504C0.764563 22.1491 1.16802 22.3175 1.58909 22.3187H8.74V20.7245H1.58909V3.98549H3.97273V6.37678H13.5073V3.98549H15.8909V12.7536H17.48V3.98549C17.4787 3.56307 17.3109 3.15831 17.0132 2.85961C16.7154 2.56092 16.312 2.39255 15.8909 2.39129ZM11.9182 4.78258H5.56182V1.59419H11.9182V4.78258Z" fill="#A1A3AB"/>

  </symbol>

   <symbol id="icon-completed" viewBox="0 0 23 23"  aria-hidden="true" role="img" >
<path d="M15.64 20.0776L13.2572 17.669L11.96 18.9802L15.64 22.7L23 15.2604L21.7028 13.9492L15.64 20.0776Z" fill="#A1A3AB"/>
<path d="M15.8909 2.39129H13.5073V1.59419C13.506 1.17178 13.3382 0.767019 13.0404 0.468322C12.7427 0.169626 12.3392 0.00126159 11.9182 0H5.56182C5.14075 0.00126159 4.73729 0.169626 4.43955 0.468322C4.14181 0.767019 3.97398 1.17178 3.97273 1.59419V2.39129H1.58909C1.16802 2.39255 0.764563 2.56092 0.466823 2.85961C0.169083 3.15831 0.00125755 3.56307 0 3.98549V20.7245C0.00125755 21.1469 0.169083 21.5517 0.466823 21.8504C0.764563 22.1491 1.16802 22.3175 1.58909 22.3187H8.74V20.7245H1.58909V3.98549H3.97273V6.37678H13.5073V3.98549H15.8909V12.7536H17.48V3.98549C17.4787 3.56307 17.3109 3.15831 17.0132 2.85961C16.7154 2.56092 16.312 2.39255 15.8909 2.39129ZM11.9182 4.78258H5.56182V1.59419H11.9182V4.78258Z" fill="#A1A3AB"/>

</symbol>


   <symbol id="icon-book" viewBox="0 0 21 24"  aria-hidden="true" role="img" >
<path d="M2.33333 24H18.6667C19.9535 24 21 22.9236 21 21.6V3.6C21 2.2764 19.9535 1.2 18.6667 1.2H16.3333C16.3333 0.88174 16.2104 0.576515 15.9916 0.351472C15.7728 0.126428 15.4761 0 15.1667 0H5.83333C5.52391 0 5.22717 0.126428 5.00838 0.351472C4.78958 0.576515 4.66667 0.88174 4.66667 1.2H2.33333C1.0465 1.2 0 2.2764 0 3.6V21.6C0 22.9236 1.0465 24 2.33333 24ZM2.33333 3.6H4.66667V6H16.3333V3.6H18.6667V21.6H2.33333V3.6Z" fill="#A1A3AB"/>
<path d="M9.68093 14.1479L7.62296 11.7144L6 13.6335L9.68093 17.9861L15.6574 10.9191L14.0345 9L9.68093 14.1479Z" fill="#A1A3AB"/>

  </symbol>

</svg>